<svg width="177" height="39" viewBox="0 0 177 39" fill="none" xmlns="http://www.w3.org/2000/svg">
<path opacity="0.01" d="M42.2481 13.1143H17.1172V38.2451H42.2481V13.1143Z" fill="#2BA8AD"/>
<path fill-rule="evenodd" clip-rule="evenodd" d="M30.4066 6.67211L27.3937 13.133C25.7804 13.677 24.384 14.8549 23.6077 16.5197C22.8313 18.1846 22.8267 20.0114 23.4469 21.5969L20.4872 27.9444C16.9305 24.3239 15.8004 18.7396 18.0715 13.8691C20.3427 8.99858 25.347 6.27471 30.4066 6.67211ZM40.776 24.4564C38.5081 29.32 33.5147 32.0431 28.4623 31.655L31.3773 25.4034C33.0484 24.881 34.5022 23.684 35.3005 21.9722C36.0987 20.2603 36.0811 18.3772 35.4072 16.7613L38.3754 10.3963C41.9203 14.0172 43.044 19.5927 40.776 24.4564Z" fill="#1FC795"/>
<path fill-rule="evenodd" clip-rule="evenodd" d="M37.5947 6.08805L37.2174 6.89702L24.5702 34.0189L21.1645 32.4309L33.8117 5.30893L34.1873 4.49968L37.5947 6.08805Z" fill="#1FC795"/>
<path d="M59.3342 22.0112L44.6094 28.3456V22.9785L54.4039 19.3276L44.6094 15.7079V10.1536L59.3342 16.488V22.0112Z" fill="white"/>
<path d="M0.00174515 22.0112L14.7266 28.3456L14.7266 22.9785L4.93201 19.3276L14.7266 15.7079V10.1536L0.00174515 16.488V22.0112Z" fill="white"/>
<path d="M73.4372 30.1071V22.0564H83.2353V17.6878H73.4372V12.6328H84.0778V8.26417H67.8828V30.1071H73.4372ZM88.8663 11.3222C90.5201 11.3222 91.7058 10.1364 91.7058 8.4514C91.7058 6.79758 90.5201 5.61182 88.8663 5.61182C87.2124 5.61182 86.0267 6.79758 86.0267 8.4514C86.0267 10.1364 87.2124 11.3222 88.8663 11.3222ZM91.5186 30.1071V13.288H86.1515V30.1071H91.5186ZM100.707 30.1071V21.2139C100.925 19.2168 102.173 17.8127 104.139 17.8127C105.949 17.8127 107.104 19.0296 107.104 20.9955V30.1071H112.471V19.4977C112.471 15.566 110.037 13.0384 106.324 13.0384C103.827 13.0696 101.893 14.0682 100.707 16.034V13.288H95.3086V30.1071H100.707ZM125.06 30.1071L131.395 13.288H126.028L122.377 25.1768L118.757 13.288H113.203L119.537 30.1071H125.06ZM140.021 30.2943C145.513 30.2943 149.195 26.8619 149.195 21.682C149.195 16.5021 145.513 13.1008 140.021 13.1008C134.498 13.1008 130.816 16.5021 130.816 21.682C130.816 26.8619 134.498 30.2943 140.021 30.2943ZM140.021 26.113C137.775 26.113 136.246 24.3655 136.246 21.7444C136.246 19.1544 137.775 17.3758 140.021 17.3758C142.237 17.3758 143.766 19.1544 143.766 21.7444C143.766 24.3655 142.237 26.113 140.021 26.113ZM157.104 30.1071V6.9536H151.706V30.1071H157.104ZM170.568 30.1071L176.902 13.288H171.535L167.884 25.1768L164.264 13.288H158.71L165.044 30.1071H170.568Z" fill="white"/>
</svg>
